<svg width="267" height="48" viewBox="0 0 267 48" fill="none" xmlns="http://www.w3.org/2000/svg">
<path d="M135.109 23.9766H129.875C129.523 21.5547 128.078 20.3828 125.754 20.3828C122.883 20.3828 121.301 22.5312 121.301 26.4766V27.9219C121.301 31.8672 122.883 34.0156 125.754 34.0156C128.098 34.0156 129.504 32.9023 129.875 30.5977H135.109C134.641 35.7344 131.359 38.4688 125.793 38.4688C119.445 38.4688 115.93 34.875 115.93 28.332V26.0664C115.93 19.5234 119.445 15.9297 125.793 15.9297C131.359 15.9297 134.602 18.7031 135.109 23.9766ZM146.48 28.4492V34.0742H152.73V38H137.261V34.0742H141.362V20.4023H136.87V16.457H146.519V21.9844H147.359C148.296 17.707 150.503 15.8906 154.566 15.8906C155.777 15.8906 156.87 16.0469 157.632 16.3398V22.1406C156.655 21.7695 155.249 21.5156 154.038 21.5156C148.96 21.5156 146.48 23.8203 146.48 28.4492ZM168.729 12.0625C166.541 12.0625 165.077 10.7148 165.077 8.68359C165.077 6.65234 166.541 5.30469 168.729 5.30469C170.916 5.30469 172.401 6.65234 172.401 8.68359C172.401 10.7148 170.916 12.0625 168.729 12.0625ZM177.928 38H159.315V33.7422H166.229V20.7344H159.666V16.457H171.424V33.7422H177.928V38ZM181.232 22.7461C181.232 18.5664 184.591 15.9492 189.923 15.9492C195.138 15.9492 198.322 18.293 198.576 22.3359H193.537C193.283 20.9102 191.877 20.0312 189.884 20.0312C187.853 20.0312 186.505 20.9492 186.505 22.3164C186.505 23.4883 187.404 24.1914 189.494 24.6211L192.834 25.3047C197.189 26.2031 199.123 28.0586 199.123 31.3398C199.123 35.6953 195.568 38.4492 189.963 38.4492C184.455 38.4492 181.056 36.0859 180.763 32.043H186.037C186.369 33.5273 187.814 34.3477 190.041 34.3477C192.228 34.3477 193.634 33.4297 193.634 32.0234C193.634 30.8125 192.814 30.2266 190.548 29.7383L187.326 29.0547C183.283 28.1758 181.232 26.0664 181.232 22.7461ZM207.016 10.3047H212.251V16.6719H220.278V20.9492H212.348V31.2422C212.348 32.8633 213.501 33.7812 215.552 33.7812C216.059 33.7812 219.79 33.7617 220.024 33.7422V37.9609C219.809 38 215.552 38.0391 215.122 38.0391C209.262 38.0391 207.016 36.1836 207.016 31.1836V20.9492H201.411V16.6719H207.016V10.3047ZM230.086 38.3516C226.023 38.3516 223.289 35.7344 223.289 31.8477C223.289 27.9609 226.121 25.6758 231.434 25.3047L236.473 24.9922V23.2734C236.473 21.3984 235.184 20.3047 232.977 20.3047C231.121 20.3047 229.734 21.125 229.285 22.4727H224.09C224.48 18.5664 228.016 16.0469 233.133 16.0469C238.66 16.0469 241.766 18.6836 241.766 23.3906V38H236.688V35.1289H236.219C235.164 37.1602 232.898 38.3516 230.086 38.3516ZM231.922 34.0742C234.578 34.0742 236.473 32.3945 236.473 29.9922V28.4297L232.332 28.6836C229.832 28.8398 228.562 29.7969 228.562 31.457C228.562 33.0586 229.852 34.0742 231.922 34.0742ZM264.034 38H245.421V33.7422H252.257V12.5117H245.773V8.25391H257.609V33.7422H264.034V38Z" fill="#00BCE2"/>
<path d="M9.58984 25.1094L17.0898 16.457H23.2031L15.2344 25.4219L23.75 38H17.5586L11.3086 28.8008L9.25781 30.8516V38H3.92578V8.25391H9.25781V25.1094H9.58984ZM30.9797 38.3516C26.9172 38.3516 24.1828 35.7344 24.1828 31.8477C24.1828 27.9609 27.0148 25.6758 32.3273 25.3047L37.3664 24.9922V23.2734C37.3664 21.3984 36.0773 20.3047 33.8703 20.3047C32.0148 20.3047 30.6281 21.125 30.1789 22.4727H24.9836C25.3742 18.5664 28.9094 16.0469 34.0266 16.0469C39.5539 16.0469 42.6594 18.6836 42.6594 23.3906V38H37.5812V35.1289H37.1125C36.0578 37.1602 33.7922 38.3516 30.9797 38.3516ZM32.8156 34.0742C35.4719 34.0742 37.3664 32.3945 37.3664 29.9922V28.4297L33.2258 28.6836C30.7258 28.8398 29.4562 29.7969 29.4562 31.457C29.4562 33.0586 30.7453 34.0742 32.8156 34.0742ZM50.9633 10.3047H56.1977V16.6719H64.225V20.9492H56.2953V31.2422C56.2953 32.8633 57.4477 33.7812 59.4984 33.7812C60.0062 33.7812 63.7367 33.7617 63.9711 33.7422V37.9609C63.7562 38 59.4984 38.0391 59.0687 38.0391C53.2094 38.0391 50.9633 36.1836 50.9633 31.1836V20.9492H45.3578V16.6719H50.9633V10.3047ZM74.0328 38.3516C69.9703 38.3516 67.2359 35.7344 67.2359 31.8477C67.2359 27.9609 70.068 25.6758 75.3805 25.3047L80.4195 24.9922V23.2734C80.4195 21.3984 79.1305 20.3047 76.9234 20.3047C75.068 20.3047 73.6813 21.125 73.232 22.4727H68.0367C68.4273 18.5664 71.9625 16.0469 77.0797 16.0469C82.607 16.0469 85.7125 18.6836 85.7125 23.3906V38H80.6344V35.1289H80.1656C79.1109 37.1602 76.8453 38.3516 74.0328 38.3516ZM75.8688 34.0742C78.525 34.0742 80.4195 32.3945 80.4195 29.9922V28.4297L76.2789 28.6836C73.7789 28.8398 72.5094 29.7969 72.5094 31.457C72.5094 33.0586 73.7984 34.0742 75.8688 34.0742ZM89.7586 22.7461C89.7586 18.5664 93.118 15.9492 98.45 15.9492C103.665 15.9492 106.848 18.293 107.102 22.3359H102.063C101.809 20.9102 100.403 20.0312 98.4109 20.0312C96.3797 20.0312 95.032 20.9492 95.032 22.3164C95.032 23.4883 95.9305 24.1914 98.0203 24.6211L101.36 25.3047C105.716 26.2031 107.649 28.0586 107.649 31.3398C107.649 35.6953 104.095 38.4492 98.4891 38.4492C92.9812 38.4492 89.5828 36.0859 89.2898 32.043H94.5633C94.8953 33.5273 96.3406 34.3477 98.5672 34.3477C100.755 34.3477 102.161 33.4297 102.161 32.0234C102.161 30.8125 101.341 30.2266 99.075 29.7383L95.8523 29.0547C91.8094 28.1758 89.7586 26.0664 89.7586 22.7461Z" fill="#12607D"/>
</svg>
